<?xml version="1.0" standalone="no"?>
<!DOCTYPE svg PUBLIC "-//W3C//DTD SVG 20010904//EN"
 "http://www.w3.org/TR/2001/REC-SVG-20010904/DTD/svg10.dtd">
<svg version="1.0" xmlns="http://www.w3.org/2000/svg"
 width="801.000000pt" height="801.000000pt" viewBox="0 0 801.000000 801.000000"
 preserveAspectRatio="xMidYMid meet">
<metadata>
Created by potrace 1.14, written by Peter Selinger 2001-2017
</metadata>
<g transform="translate(0.000000,801.000000) scale(0.100000,-0.100000)"
fill="#000000" stroke="none">
<path d="M1806 7403 c1 -335 2 -612 3 -616 0 -4 27 -7 59 -5 l57 3 1 535 c1
294 2 542 3 550 1 13 33 15 239 15 l237 0 3 -553 2 -552 60 0 60 0 0 615 0
615 -363 0 -362 0 1 -607z"/>
<path d="M1809 6655 c-1 0 -2 -97 -4 -215 -8 -603 -43 -789 -188 -1005 -22
-33 -43 -62 -47 -65 -3 -3 -16 -18 -28 -34 -21 -27 -114 -135 -137 -160 -192
-201 -349 -555 -390 -882 -4 -27 -9 -60 -12 -74 -4 -14 -7 -905 -9 -1980 -2
-1698 0 -1961 13 -2000 45 -137 178 -235 313 -231 48 2 1609 3 1699 1 141 -2
264 89 310 230 14 44 16 232 15 1952 -1 1696 -4 2023 -19 2078 -2 8 -6 32 -9
53 -36 241 -135 506 -259 692 -44 66 -60 88 -125 160 -32 36 -151 175 -172
201 -37 47 -94 140 -121 199 -49 108 -76 234 -94 440 -6 69 -14 362 -15 546
l0 95 -360 0 c-198 0 -360 0 -361 -1z m1259 -4132 l2 -1243 -903 0 -902 0 1
1243 c1 683 2 1242 3 1243 0 0 405 0 899 0 l897 -1 3 -1242z"/>
<path d="M1594 3412 c-31 -4 -50 -45 -36 -77 9 -20 19 -25 49 -26 21 0 179 -1
351 -2 l313 -1 -38 -36 c-51 -46 -97 -115 -123 -181 -37 -93 -32 -162 10 -154
32 6 37 12 44 55 18 116 105 229 217 284 l67 32 191 -2 c207 -2 221 1 221 51
0 41 -25 55 -98 56 -356 2 -1152 3 -1168 1z"/>
<path d="M1649 2969 c-66 -34 -92 -124 -53 -184 19 -30 86 -65 113 -60 9 2 24
4 35 4 29 1 82 62 90 103 19 101 -94 184 -185 137z"/>
<path d="M2226 2979 c-102 -29 -126 -165 -38 -224 87 -59 200 -5 204 98 3 84
-82 149 -166 126z"/>
<path d="M1922 2963 c-64 -31 -82 -113 -40 -181 24 -39 58 -56 111 -54 99 4
152 115 95 198 -38 55 -101 69 -166 37z"/>
<path d="M2485 2966 c-97 -42 -96 -179 0 -226 117 -57 232 67 165 178 -33 55
-104 75 -165 48z"/>
<path d="M1504 2733 c-112 -56 -73 -229 54 -238 101 -7 169 99 120 187 -35 62
-108 84 -174 51z"/>
<path d="M1794 2736 c-49 -22 -74 -61 -74 -117 0 -42 5 -55 34 -86 29 -32 39
-37 83 -37 27 -1 62 6 77 14 57 30 78 131 38 186 -18 24 -79 54 -110 54 -9 -1
-31 -7 -48 -14z"/>
<path d="M2053 2729 c-33 -21 -64 -83 -58 -115 2 -10 4 -24 4 -31 2 -25 54
-73 92 -83 33 -9 47 -8 83 9 52 23 76 61 76 122 0 35 -6 48 -39 80 -33 34 -45
39 -82 39 -27 0 -56 -8 -76 -21z"/>
<path d="M2365 2742 c-52 -12 -94 -67 -94 -122 -1 -47 17 -80 58 -107 104 -70
236 35 191 153 -12 31 -58 74 -80 75 -8 0 -24 2 -35 3 -11 2 -29 1 -40 -2z"/>
<path d="M2643 2740 c-36 -8 -81 -52 -89 -87 -17 -66 27 -143 91 -159 35 -9
88 3 114 25 104 90 20 252 -116 221z"/>
<path d="M1645 2498 c-121 -70 -76 -245 61 -241 47 2 96 29 115 64 29 54 3
141 -51 173 -32 19 -96 21 -125 4z"/>
<path d="M1924 2493 c-61 -30 -87 -122 -51 -177 54 -82 179 -79 223 5 58 112
-59 229 -172 172z"/>
<path d="M2205 2500 c-11 -4 -31 -20 -45 -34 -20 -22 -24 -37 -24 -82 0 -47 4
-58 30 -85 59 -58 139 -55 194 8 29 33 32 41 27 86 -4 42 -10 56 -41 84 -29
27 -44 33 -78 32 -24 0 -52 -4 -63 -9z"/>
<path d="M2449 2471 c-34 -34 -39 -44 -39 -86 0 -74 39 -119 114 -131 91 -14
169 85 134 170 -24 59 -66 86 -135 86 -28 0 -44 -8 -74 -39z"/>
<path d="M1810 2268 c-71 -19 -113 -94 -90 -162 34 -104 183 -119 234 -24 27
49 18 119 -18 153 -15 14 -28 25 -29 25 -1 0 -16 4 -32 8 -17 5 -45 5 -65 0z"/>
<path d="M2365 2269 c-60 -18 -95 -65 -95 -126 0 -35 6 -50 34 -81 33 -35 38
-37 96 -37 57 0 64 3 90 32 88 99 -1 249 -125 212z"/>
<path d="M2064 2260 c-54 -22 -87 -105 -63 -163 17 -41 30 -55 71 -71 139 -56
242 136 119 223 -30 22 -88 27 -127 11z"/>
<path d="M1941 2026 c-40 -14 -80 -58 -83 -89 0 -12 -2 -29 -3 -37 -3 -29 35
-90 67 -106 69 -36 168 6 183 78 23 103 -68 188 -164 154z"/>
<path d="M2223 2028 c-35 -9 -80 -56 -89 -94 -11 -44 5 -91 42 -123 29 -26 43
-31 84 -31 43 0 56 5 88 34 34 32 37 39 37 90 0 49 -4 59 -31 86 -35 36 -85
50 -131 38z"/>
<path d="M2063 1779 c-65 -32 -88 -95 -59 -164 49 -115 219 -90 241 36 18 101
-87 175 -182 128z"/>
<path d="M4811 6493 c-29 -56 -122 -271 -182 -422 -147 -370 -267 -798 -304
-1081 -4 -30 -9 -63 -10 -72 -8 -39 -18 -220 -19 -308 0 -181 21 -358 53 -443
6 -15 9 -27 6 -27 -6 0 29 -98 62 -170 152 -335 486 -553 928 -605 68 -9 107
-15 114 -19 11 -7 6 -2727 -5 -2734 -6 -4 -96 -63 -200 -130 -104 -68 -283
-186 -399 -263 -115 -76 -235 -153 -265 -171 l-55 -33 563 -3 c310 -1 813 -1
1119 0 l555 3 -64 42 c-34 22 -155 102 -268 175 -113 74 -292 192 -397 261
l-193 127 0 1365 c0 1085 3 1365 13 1366 6 1 21 3 32 4 11 1 46 5 78 9 76 8
213 40 310 72 283 94 490 273 612 530 20 43 39 84 41 93 73 271 75 286 79 516
3 219 -9 343 -60 618 -9 47 -51 217 -75 302 -12 44 -23 85 -24 90 -5 28 -95
288 -147 425 -49 131 -103 257 -197 462 l-17 37 -837 1 c-787 0 -838 -1 -847
-17z"/>
</g>
</svg>
