<?xml version="1.0" standalone="no"?>
<!DOCTYPE svg PUBLIC "-//W3C//DTD SVG 20010904//EN"
 "http://www.w3.org/TR/2001/REC-SVG-20010904/DTD/svg10.dtd">
<svg version="1.0" xmlns="http://www.w3.org/2000/svg"
 width="460.000000pt" height="460.000000pt" viewBox="0 0 460.000000 460.000000"
 preserveAspectRatio="xMidYMid meet">
<metadata>
Created by potrace 1.14, written by Peter Selinger 2001-2017
</metadata>
<g transform="translate(0.000000,460.000000) scale(0.100000,-0.100000)"
fill="#000000" stroke="none">
<path d="M337 3253 c-4 -3 -7 -106 -7 -228 l0 -223 -28 -11 c-43 -18 -108 -89
-134 -146 l-23 -50 -3 -609 c-2 -391 1 -613 7 -619 6 -6 124 -10 307 -9 237 0
298 3 305 14 5 7 8 281 7 618 -3 540 -5 609 -20 640 -30 64 -79 121 -129 152
l-49 31 0 223 0 224 -113 0 c-63 0 -117 -3 -120 -7z m123 -458 c0 -50 -2 -56
-28 -69 -40 -21 -102 -85 -118 -123 -9 -21 -14 -69 -14 -133 l0 -100 -46 0
-46 0 3 113 c4 108 5 115 37 164 29 45 109 113 134 113 4 0 8 20 8 45 0 45 0
45 35 45 l35 0 0 -55z m28 -497 c5 -7 12 -22 14 -33 3 -16 10 -19 36 -17 30 3
32 2 32 -29 0 -43 -25 -69 -67 -69 -28 0 -33 3 -33 24 0 35 -18 42 -22 9 -2
-23 -9 -29 -34 -31 -36 -4 -64 23 -67 64 -2 25 2 29 28 32 21 2 35 12 47 32
18 31 48 39 66 18z m-106 -214 c9 -19 8 -28 -7 -44 -22 -24 -42 -25 -67 -3
-24 21 -23 48 3 66 26 19 58 10 71 -19z m108 16 c25 -25 25 -32 2 -60 -25 -31
-69 -21 -78 17 -5 20 -2 31 16 45 28 23 35 23 60 -2z m112 8 c25 -21 28 -45 9
-69 -24 -30 -68 -20 -77 18 -5 20 -2 31 16 45 26 21 31 22 52 6z m-167 -129
c13 -20 -5 -59 -30 -65 -33 -8 -55 11 -55 48 0 45 61 57 85 17z m130 -25 c0
-35 -43 -56 -69 -34 -24 19 -20 65 7 77 31 15 62 -6 62 -43z m-74 -75 c14 -14
18 -27 13 -42 -12 -39 -50 -49 -78 -21 -22 22 -20 50 6 68 29 21 34 20 59 -5z
m-193 -261 l3 -148 -46 0 -45 0 0 151 0 150 43 -3 42 -3 3 -147z"/>
<path d="M3740 2670 c-75 -18 -131 -120 -110 -199 37 -139 206 -167 294 -48
31 42 30 140 -2 185 -39 54 -112 79 -182 62z m70 -36 c118 -47 115 -254 -3
-254 -89 0 -156 126 -115 216 10 21 50 49 75 54 2 0 21 -7 43 -16z"/>
<path d="M1580 2662 c0 -4 8 -12 18 -18 9 -6 44 -75 77 -153 45 -107 63 -141
77 -141 10 0 18 6 18 14 0 25 102 258 122 278 10 10 18 20 18 23 0 3 -24 5
-52 5 -46 -1 -51 -2 -35 -14 9 -7 17 -19 16 -27 0 -27 -76 -202 -82 -192 -4 6
-23 48 -42 93 -35 83 -43 120 -25 120 6 0 10 5 10 10 0 6 -27 10 -60 10 -33 0
-60 -3 -60 -8z"/>
<path d="M1950 2660 c0 -5 6 -10 14 -10 22 0 26 -24 26 -145 0 -102 -2 -115
-20 -128 -28 -20 -15 -27 52 -27 61 0 71 7 38 28 -18 11 -20 23 -20 126 0 122
4 146 26 146 8 0 14 5 14 10 0 6 -28 10 -65 10 -37 0 -65 -4 -65 -10z"/>
<path d="M2138 2650 c20 -19 22 -30 22 -140 l0 -119 -27 -15 c-16 -8 -26 -16
-23 -16 3 -1 58 -2 123 -4 109 -2 120 -1 133 18 8 11 14 28 14 38 0 15 -5 14
-36 -7 -40 -27 -102 -33 -122 -13 -8 8 -12 49 -12 120 0 95 2 110 20 128 11
11 20 22 20 25 0 3 -30 5 -67 5 l-67 0 22 -20z"/>
<path d="M2420 2660 c0 -5 6 -10 14 -10 22 0 26 -23 26 -140 0 -85 -3 -112
-16 -124 -8 -9 -20 -16 -26 -16 -6 0 -9 -3 -5 -6 3 -4 57 -7 119 -8 96 -1 115
1 130 16 10 10 18 27 18 38 0 18 -2 18 -36 -5 -40 -27 -102 -33 -122 -13 -8 8
-12 49 -12 119 0 116 4 139 26 139 8 0 14 5 14 10 0 6 -28 10 -65 10 -37 0
-65 -4 -65 -10z"/>
<path d="M2805 2529 c-32 -78 -67 -146 -77 -153 -30 -18 -21 -26 32 -26 53 0
60 5 34 24 -12 9 -13 17 -5 39 10 26 14 27 76 27 61 0 66 -2 77 -26 10 -22 10
-28 -5 -39 -9 -6 -14 -15 -10 -18 8 -8 107 -9 115 -1 3 3 -4 15 -16 27 -20 20
-126 254 -126 278 0 5 -8 9 -18 9 -13 0 -32 -35 -77 -141z m91 -2 c24 -57 20
-67 -28 -67 -52 0 -58 7 -41 48 8 20 19 48 24 61 12 29 17 24 45 -42z"/>
<path d="M3170 2660 c0 -5 6 -10 14 -10 22 0 26 -24 26 -146 0 -112 0 -115
-25 -126 -14 -6 -25 -14 -25 -17 0 -4 36 -6 80 -6 44 0 80 2 80 5 0 3 -14 13
-31 22 -28 16 -30 21 -27 65 3 54 19 64 67 40 28 -14 29 -14 45 21 l17 34 -28
-8 c-15 -4 -44 -8 -63 -8 l-35 -1 -3 53 c-3 48 -1 53 22 62 28 10 85 -2 97
-22 10 -16 16 -10 24 25 l7 27 -121 0 c-74 0 -121 -4 -121 -10z"/>
<path d="M3450 2665 c0 -3 9 -14 20 -25 18 -18 20 -33 20 -130 0 -97 -2 -112
-20 -130 -11 -11 -20 -22 -20 -25 0 -8 116 -6 123 2 4 3 -2 12 -13 20 -18 13
-20 26 -20 133 0 110 2 121 22 140 l22 20 -67 0 c-37 0 -67 -2 -67 -5z"/>
<path d="M4000 2661 c0 -5 7 -11 15 -15 12 -4 15 -29 15 -135 0 -105 -3 -130
-15 -135 -37 -14 -11 -26 55 -26 72 0 87 8 48 25 -20 8 -23 19 -26 68 -3 57
-2 58 20 52 28 -9 48 -24 68 -50 50 -68 83 -95 116 -95 l33 0 -42 47 c-23 25
-56 61 -73 80 -18 18 -28 33 -23 33 6 0 21 11 34 25 40 40 30 96 -22 123 -25
14 -203 16 -203 3z m177 -33 c7 -6 13 -28 13 -49 0 -43 -18 -59 -69 -59 l-31
0 0 59 c0 38 5 61 13 65 16 6 58 -3 74 -16z"/>
<path d="M4360 2661 c0 -5 7 -11 15 -15 12 -4 15 -29 15 -135 0 -105 -3 -130
-15 -135 -34 -13 -12 -26 44 -26 61 0 88 13 51 25 -19 6 -20 15 -20 136 0 106
3 131 15 135 33 13 12 24 -45 24 -33 0 -60 -4 -60 -9z"/>
<path d="M899 2403 c-32 -84 -61 -310 -48 -377 14 -79 45 -119 143 -190 56
-42 66 -75 66 -218 0 -165 -18 -195 -137 -227 -24 -7 -43 -16 -43 -21 0 -11
34 -12 373 -10 67 0 74 15 15 31 -120 32 -138 62 -138 227 0 142 11 177 69
219 63 47 102 87 123 128 19 36 20 52 15 160 -4 76 -14 153 -29 210 l-23 90
-188 3 -187 2 -11 -27z m363 -78 c9 -27 18 -70 20 -95 l3 -45 -151 -3 -152 -3
-6 -31 c-9 -44 -7 -157 3 -200 11 -47 2 -48 -37 -4 -44 51 -56 96 -48 192 7
92 32 212 48 232 8 9 47 12 157 10 l146 -3 17 -50z"/>
<path d="M1582 2025 l2 -90 5 70 6 70 13 -37 c19 -53 30 -55 50 -11 l17 38 6
-65 6 -65 1 88 c1 48 0 87 -3 87 -2 0 -14 -23 -26 -51 l-22 -51 -28 53 -28 54
1 -90z"/>
<path d="M1857 2103 c-4 -3 -7 -39 -7 -79 0 -64 2 -73 20 -79 30 -9 57 3 64
28 9 35 7 96 -4 118 -10 19 -59 27 -73 12z m58 -78 c0 -68 -1 -70 -25 -70 -23
0 -25 4 -28 59 -4 73 2 88 30 84 21 -3 23 -8 23 -73z"/>
<path d="M2092 2023 l2 -88 5 73 6 72 29 -70 c17 -38 33 -70 38 -70 4 0 7 39
6 88 -1 53 -3 68 -5 37 -6 -81 -12 -83 -43 -17 -16 34 -32 62 -35 62 -3 0 -4
-39 -3 -87z"/>
<path d="M2345 2101 c17 -7 21 -20 26 -87 l5 -79 2 82 c2 68 5 82 20 86 9 3
-3 5 -28 5 -32 0 -39 -2 -25 -7z"/>
<path d="M2560 2025 l0 -85 48 1 47 2 -40 6 c-36 5 -40 9 -43 39 -3 31 -2 32
35 33 l38 2 -35 6 c-30 5 -35 10 -38 38 -3 30 -1 32 35 36 l38 4 -42 1 -43 2
0 -85z"/>
<path d="M2801 2023 c1 -58 4 -76 8 -53 5 29 11 36 34 38 34 4 51 40 37 77 -8
20 -16 25 -45 25 l-35 0 1 -87z m64 37 c0 -31 -3 -35 -27 -38 -27 -3 -28 -1
-28 38 0 39 1 41 28 38 24 -3 27 -7 27 -38z"/>
<path d="M3032 2040 c-2 -81 6 -100 43 -100 37 0 45 19 43 100 l-1 75 -6 -72
c-7 -79 -21 -104 -49 -87 -13 8 -18 30 -23 85 l-5 74 -2 -75z"/>
<path d="M3272 2028 l-2 -88 38 1 c36 1 36 2 7 8 -30 6 -30 7 -36 86 l-5 80
-2 -87z"/>
<path d="M3486 2094 c-12 -32 -6 -131 9 -144 20 -17 65 -4 65 18 -1 16 -1 16
-11 0 -13 -22 -45 -23 -53 -2 -11 28 -6 120 6 132 8 8 8 12 1 12 -6 0 -14 -7
-17 -16z"/>
<path d="M3536 2103 c6 -4 14 -15 17 -23 5 -11 6 -9 4 4 -1 11 -9 21 -17 23
-10 3 -11 2 -4 -4z"/>
<path d="M3724 2025 c0 -49 1 -71 3 -48 2 23 2 64 0 90 -2 26 -3 8 -3 -42z"/>
<path d="M3927 2103 c-4 -3 -7 -11 -7 -17 0 -6 5 -5 12 2 6 6 9 14 7 17 -3 3
-9 2 -12 -2z"/>
<path d="M4130 2025 c0 -50 4 -85 10 -85 6 0 10 29 10 68 l0 67 32 -67 c17
-37 35 -65 39 -62 12 7 11 151 -1 159 -6 4 -10 -18 -11 -57 l0 -63 -32 63
c-17 34 -35 62 -39 62 -4 0 -8 -38 -8 -85z"/>
<path d="M4387 2103 c-12 -11 -8 -138 5 -151 18 -18 56 -14 68 7 14 27 13 124
-2 139 -13 13 -60 16 -71 5z m61 -75 c-3 -70 -4 -73 -28 -73 -23 0 -25 4 -28
59 -4 74 1 86 33 86 26 0 26 -1 23 -72z"/>
<path d="M3951 2028 c-1 -31 -24 -38 -39 -12 -7 13 -11 9 -16 -21 -4 -20 -5
-40 -2 -43 3 -3 6 5 6 17 0 19 5 22 32 19 25 -2 34 -9 39 -28 5 -19 7 -20 7
-5 0 11 -5 38 -13 60 -11 36 -13 37 -14 13z"/>
</g>
</svg>
